<svg width="176" height="44" viewBox="0 0 176 44" fill="none" xmlns="http://www.w3.org/2000/svg" role="img" aria-labelledby="title desc">
  <title id="title">Magneto 365</title>
  <desc id="desc">Emblema textual Magneto 365 para la demo academica GraphHired.</desc>
  <rect x="1" y="1" width="174" height="42" rx="21" fill="#0F172A" stroke="#1F2937" stroke-width="2"/>
  <circle cx="24" cy="22" r="8" fill="#F59E0B"/>
  <circle cx="24" cy="22" r="4" fill="#111827"/>
  <path d="M42 28V16h3.2l4.2 6.5 4.1-6.5h3.2v12h-3.1v-7.2l-3.2 4.9h-2l-3.2-4.8V28H42Z" fill="white"/>
  <path d="M62.2 28.2c-2.8 0-4.9-2-4.9-4.7 0-2.8 2.1-4.8 4.9-4.8 1.4 0 2.5.5 3.2 1.3v-1.1h2.8V28h-2.8v-1.1c-.7.8-1.8 1.3-3.2 1.3Zm.6-2.5c1.5 0 2.6-.9 2.6-2.2 0-1.4-1.1-2.3-2.6-2.3s-2.6.9-2.6 2.3c0 1.3 1.1 2.2 2.6 2.2Z" fill="white"/>
  <path d="M74.3 31.5c-1.8 0-3.4-.4-4.6-1.3l1.1-2.2c.9.7 2 1 3.3 1 1.9 0 2.8-.8 2.8-2.5v-.4c-.7.7-1.8 1.1-3.1 1.1-2.7 0-4.7-1.8-4.7-4.3 0-2.5 2-4.3 4.7-4.3 1.4 0 2.5.4 3.2 1.3v-1.1h2.8v7.4c0 3.6-2.1 5.3-5.5 5.3Zm.1-6.6c1.5 0 2.5-.8 2.5-2s-1-2-2.5-2-2.5.8-2.5 2 1 2 2.5 2Z" fill="white"/>
  <path d="M81.6 28v-9.1h2.8V20c.7-.8 1.8-1.3 3.1-1.3 2.2 0 3.7 1.3 3.7 4V28h-2.9v-4.8c0-1.3-.6-1.9-1.8-1.9-1.3 0-2 .8-2 2.2V28h-2.9Z" fill="white"/>
  <path d="M97.2 28.2c-3.1 0-5.2-2-5.2-4.7s2.1-4.8 5-4.8c2.7 0 4.8 1.8 4.8 4.8 0 .2 0 .6-.1.8h-6.8c.3 1.1 1.2 1.7 2.6 1.7 1 0 1.8-.3 2.4-.9l1.5 1.7c-.9.9-2.3 1.4-4.2 1.4Zm-2.3-5.5h4.2c-.2-1.1-1-1.8-2.1-1.8-1.1 0-1.9.7-2.1 1.8Z" fill="white"/>
  <path d="M107.1 28.2c-2.2 0-3.5-1.1-3.5-3.3v-3.6h-1.4V19h1.4v-2.2h2.9V19h2.2v2.3h-2.2v3.5c0 .7.4 1.1 1.1 1.1.4 0 .8-.1 1.1-.3l.8 2.1c-.6.3-1.5.5-2.4.5Z" fill="white"/>
  <path d="M115 28.2c-3 0-5.2-2-5.2-4.7s2.2-4.8 5.2-4.8 5.2 2 5.2 4.8-2.2 4.7-5.2 4.7Zm0-2.5c1.4 0 2.3-.9 2.3-2.2 0-1.4-.9-2.3-2.3-2.3s-2.3.9-2.3 2.3c0 1.3.9 2.2 2.3 2.2Z" fill="white"/>
  <text x="127" y="27" fill="#F59E0B" font-family="Arial, Helvetica, sans-serif" font-weight="700" font-size="14">365</text>
</svg>
